<?xml version="1.0" encoding="utf-8"?>
<!-- Generator: Adobe Illustrator 26.3.1, SVG Export Plug-In . SVG Version: 6.00 Build 0)  -->
<svg version="1.1" id="Layer_1" xmlns="http://www.w3.org/2000/svg" xmlns:xlink="http://www.w3.org/1999/xlink" x="0px" y="0px"
	 viewBox="0 0 144 144" style="enable-background:new 0 0 144 144;" xml:space="preserve">
<style type="text/css">
	.st0{fill:#83E3ED;}
	.st1{fill:#D52D14;}
	.st2{fill:#F04B24;}
	.st3{fill:#FFFFFF;}
</style>
<path class="st0" d="M72.9,4.2c38,0,68.7,30.8,68.7,68.7c0,37.9-30.8,68.7-68.7,68.7S4.2,111,4.2,73S34.9,4.2,72.9,4.2z"/>
<path class="st1" d="M135.1,46.4c0,4.3-0.5,8.4-1.3,12.8c-4.6,20.7-20.7,47-60.6,59.8c-40-13-56-39.1-60.6-59.8
	c-0.8-4.1-1.3-8.4-1.3-12.8c0-20.7,12.8-38.9,31-38.9c12,0,23.1,5.2,31,13.9c7.9-8.7,19.3-13.9,31-13.9
	C122.3,7.5,135.1,25.4,135.1,46.4z"/>
<path class="st2" d="M135.1,46.4c0,4.3-0.5,8.4-1.3,12.8C122.3,73,99.5,82.5,73.2,82.5C46.8,82.5,24,73,12.6,59.1
	c-0.8-4.1-1.3-8.4-1.3-12.8c0-20.7,12.8-38.9,31-38.9c12,0,23.1,5.2,31,13.9c7.9-8.7,19.3-13.9,31-13.9
	C122.3,7.5,135.1,25.4,135.1,46.4z"/>
<path class="st3" d="M38.7,90.9c-0.8,0-1.6-0.5-1.9-1.3L30,74.4L27.8,79c-0.3,0.8-1.1,1.1-1.9,1.1H11c-1.1,0-2.2-1.1-2.2-2.2
	s1.1-2.2,2.2-2.2h13.6l3.8-7.3c0.3-0.8,1.1-1.1,1.9-1.1s1.6,0.5,1.9,1.3l6,13.6L43,62.6c0.3-1.1,1.3-1.9,2.7-1.7
	c1.1,0.3,1.9,1.3,1.7,2.7l-6.5,25.8c-0.3,0.5-1.1,1.3-2.2,1.3"/>
<path class="st3" d="M109.3,86.6c-1.1,0-1.7-0.5-1.9-1.3l-7-21.5c-0.3-0.8,0-1.7,0.5-2.2c0.6-0.5,1.3-0.8,1.9-0.5
	c0.8,0.3,1.3,0.8,1.7,1.3l5.4,16.3l6.3-14.1c0.3-0.8,1.1-1.3,1.9-1.3c0.8,0,1.7,0.5,1.9,1.3l3.8,9.2h11.4c1.1,0,2.2,1.1,2.2,2.2
	c0,1.1-1.1,2.2-2.2,2.2h-12.8c-0.8,0-1.7-0.6-1.9-1.3l-2.4-6l-6.5,14.7C111.1,86.4,110.2,86.6,109.3,86.6"/>
<path class="st3" d="M53.9,49.6c0,5.4-3.8,9.8-8.4,9.8S37,55.1,37,49.6s3.8-9.8,8.4-9.8S53.9,44.2,53.9,49.6z"/>
<path class="st3" d="M109,49.6c0,5.4-3.8,9.8-8.4,9.8c-4.6,0-8.4-4.3-8.4-9.8s3.8-9.8,8.4-9.8C105.2,39.8,109,44.2,109,49.6z"/>
<path class="st3" d="M70.5,32c0,6-4.1,10.9-9.2,10.9S52.1,38,52.1,32s4.1-10.9,9.2-10.9C66.4,21.4,70.5,26,70.5,32z"/>
<path class="st3" d="M93.8,32c0,6-4.1,10.9-9.2,10.9c-5.1,0-9.2-4.9-9.2-10.9s4.1-10.9,9.2-10.9C89.5,21.4,93.8,26,93.8,32z"/>
<path class="st3" d="M88.7,86.3c5.4-1.9,9-7.3,9-13c0-4.6-2.2-9-6.3-13.3c-1.3-1.3-7.6-7.9-12.5-13c-3-3.3-8.2-3.3-11.4-0.3
	l-0.3,0.3c-4.9,5.2-11.1,11.7-12.5,13c-4.1,4.3-6.3,8.7-6.3,13.3c0,5.7,3.5,11.1,9,13c6,2.2,12.8-0.8,15.5-6.5
	C75.9,85.8,82.4,88.5,88.7,86.3z"/>
</svg>
