<svg width="144" height="144" viewBox="0 0 176 176" fill="none" xmlns="http://www.w3.org/2000/svg">
<path d="M85.125 0.6875C131.75 0.6875 169.5 38.4375 169.5 85.0625C169.5 131.688 131.75 169.438 85.125 169.438C38.5 169.438 0.75 131.688 0.75 85.0625C0.75 38.4375 38.5 0.6875 85.125 0.6875Z" fill="#83E3ED"/>
<path d="M111.812 10.375L55.125 10.6875C56.8125 23.6875 50.125 35.0625 54.125 39.375C56.125 41.375 58.8125 40.6875 61.125 39.0625C61.8125 38.75 62.8125 38.75 63.4375 39.75C64.125 41.4375 65.75 42.4375 67.4375 42.4375C69.75 42.75 72.4375 41.75 74.125 40.125C74.8125 39.4375 75.4375 39.4375 76.125 40.125C78.4375 41.4375 83.8125 44.4375 87.8125 40.125C88.5 39.4375 89.5 39.4375 90.125 40.125L90.4375 40.4375C91.4375 42.125 93.4375 43.4375 95.4375 43.4375C97.4375 43.4375 99.4375 42.4375 100.437 40.75C100.75 40.0625 101.75 39.75 102.75 40.4375C104.437 41.4375 107.437 42.4375 109.75 40.4375C113.437 36.75 107.437 23.4375 111.75 10.4375" fill="white"/>
<path d="M16.7495 62.7491C19.062 59.0616 28.062 60.7491 27.7495 67.0616C27.437 73.3741 22.062 73.7491 18.7495 72.0616C15.062 69.7491 14.7495 65.7491 16.7495 62.7491Z" fill="#008C95"/>
<path d="M141.813 69.7503C143.5 67.0628 150.125 68.0628 149.813 72.7503C149.5 77.4378 145.5 77.4378 143.125 76.4378C140.438 75.1253 140.125 72.1253 141.813 69.7503Z" fill="#008C95"/>
<path d="M57.1245 83.7503C58.812 81.0628 65.437 82.0628 65.1245 86.7503C64.812 91.4378 60.812 91.4378 58.437 90.4378C55.7495 89.1253 55.7495 86.1253 57.1245 83.7503V83.7503Z" stroke="#003E52" stroke-width="1.15" stroke-linecap="round" stroke-linejoin="round"/>
<path d="M35.0627 28.0633C41.7502 28.7508 42.7502 37.3758 39.0627 42.3758C35.3752 47.0633 29.0627 44.6883 26.0627 40.0633C23.0627 35.7508 28.7502 27.3758 35.0627 28.0633Z" fill="#008C95"/>
<path d="M123.438 38.6858C125.751 33.9983 132.438 35.3733 135.126 39.3733C137.813 43.3733 134.126 47.3733 130.126 48.3733C126.126 49.3733 121.126 43.0608 123.438 38.6858Z" fill="#008C95"/>
<path d="M98.1252 64.7483C100.438 60.0608 107.125 61.4358 109.813 65.4358C112.125 69.4358 108.813 73.4358 104.813 74.4358C100.5 75.7483 95.8127 69.4358 98.1252 64.7483V64.7483Z" stroke="#003E52" stroke-width="1.15" stroke-linecap="round" stroke-linejoin="round"/>
<path d="M115.438 117.75C106.438 133.75 109.438 161.438 96.4377 159.438C87.1252 157.75 92.1252 113.75 82.1252 113.75C72.1252 113.75 77.1252 157.75 67.8127 159.438C54.8127 161.75 58.1252 134.063 48.8127 117.75C39.8127 101.75 30.4377 78.7503 39.8127 63.0628C46.8127 51.0628 63.5002 50.7503 74.1877 56.0628C74.5002 56.3753 75.1877 56.3753 75.5002 56.7503C80.1877 58.7503 85.5002 58.4378 90.1877 56.0628C101.188 50.7503 117.563 51.0628 124.563 63.0628C133.875 78.7503 124.875 101.438 115.563 117.75" fill="white"/>
<path d="M87.4375 63.375C87.4375 64.375 86.4375 65.0625 85.4375 65.0625H85.125C81.4375 64.75 79.8125 62.0625 78.4375 60.0625C77.4375 58.75 76.4375 57.375 75.4375 56.375C77.4375 57.0625 79.4375 57.6875 81.4375 57.6875V58C82.75 60.3125 83.75 61.3125 85.4375 61.3125C86.75 61.3125 87.75 62.3125 87.4375 63.3125" fill="#003E52"/>
<path d="M69.125 28.0625C68.125 28.0625 67.125 27.0625 67.125 26.0625V25.75C68.125 19.75 68.125 18.4375 67.8125 16.0625V13.0625C67.8125 12.0625 68.5 11.0625 69.8125 11.0625C70.8125 11.0625 71.8125 11.75 71.8125 13.0625V15.75C71.8125 18.0625 72.125 19.75 70.8125 26.4375C70.8125 27.4375 70.125 28.125 69.125 28.125" fill="#003E52"/>
<path d="M97.4377 29.0621C96.4377 29.0621 95.7502 28.3746 95.4377 27.7496C94.4377 23.4371 94.1252 18.7496 94.7502 14.3746V12.6871C94.7502 11.6871 95.7502 10.6871 96.7502 10.9996C97.7502 10.9996 98.7502 11.9997 98.4377 12.9997V14.6872C97.7502 18.6872 98.1252 22.6871 99.1252 26.6871C99.4377 27.6871 98.8127 28.6872 97.8127 28.9997H97.5002" fill="#003E52"/>
<path d="M82.75 25.0625C82.5417 25.0625 82.5417 25.0625 82.75 25.0625C81.4375 25.0625 80.75 24.0625 80.75 23.0625C81.0625 19.75 81.0625 16.75 81.0625 13.375C81.0625 12.375 81.75 11.375 82.75 11.0625C83.75 11.0625 84.75 11.75 85.0625 12.75C85.375 15.75 84.75 22.75 84.75 23.4375C84.4375 24.4375 83.4375 25.125 82.75 25.125" fill="#003E52"/>
<path d="M169.187 3.06311C169.187 3.06311 121.188 3.37561 113.188 3.37561C95.5 2.68811 81.5 1.68811 56.125 2.37561C53.125 2.37561 50.8125 4.68811 50.8125 7.68811C50.8125 10.6881 53.125 13.0006 56.125 13.0006C56.125 13.0006 94.125 12.6881 111.5 12.6881C119.812 12.6881 169.187 11.6881 169.187 11.6881V3.00061V3.06311Z" fill="#F04B24"/>
</svg>
